<?xml version="1.0" encoding="utf-8"?>
<!-- Generator: Adobe Illustrator 20.0.0, SVG Export Plug-In . SVG Version: 6.00 Build 0)  -->
<svg version="1.1" id="Layer_1" xmlns="http://www.w3.org/2000/svg" xmlns:xlink="http://www.w3.org/1999/xlink" x="0px" y="0px"
	 viewBox="0 0 500 500" style="enable-background:new 0 0 500 500;" xml:space="preserve">
<style type="text/css">
	.st0{fill:none;stroke:#000000;stroke-width:9;stroke-miterlimit:10;}
	.st1{fill:#00A3C9;stroke:#000000;stroke-width:9;stroke-miterlimit:10;}
</style>
<path id="rope" class="st0" d="M252.9,281.7c-4,7.7-15.2,52.3-2.6,72.6c12.6,20.2,1.4,44.1-2.3,61.8"/>
<path id="balloon" class="st1" d="M276.3,284.3c7.3,3.3-2.8,8.6-26.3,8.7c-23.2,0.1-35.7-3.3-24-10c8-4.6,13.7-16,13.7-16
	c-34.3-11-75.5-54.9-75.5-105c0-57.5,38.4-104,85.9-104s85.9,46.6,85.9,104c0,54.6-31.2,91-70.9,107L276.3,284.3z"/>
</svg>
