<?xml version="1.0" encoding="utf-8"?>
<!-- Generator: Adobe Illustrator 14.0.0, SVG Export Plug-In . SVG Version: 6.00 Build 43363)  -->
<!DOCTYPE svg PUBLIC "-//W3C//DTD SVG 1.0//EN" "http://www.w3.org/TR/2001/REC-SVG-20010904/DTD/svg10.dtd">
<svg version="1.0" id="Layer_1" xmlns="http://www.w3.org/2000/svg" xmlns:xlink="http://www.w3.org/1999/xlink" x="0px" y="0px"
	 width="1000px" height="1000px" viewBox="0 0 1000 1000" enable-background="new 0 0 1000 1000" xml:space="preserve">
<path d="M547.7,865.1c72.2-60.9,264-222.6,264-405c0-53.5-9.3-103.9-27.6-149.8c-16.9-42.5-41.2-80.2-72-112
	c-58-60-135.4-94.4-212.1-94.4s-154.1,34.4-212.1,94.4c-30.8,31.9-55.1,69.6-72,112c-18.3,45.9-27.6,96.3-27.6,149.8
	c0,182.4,191.8,344.1,264,405c10.7,9,20.9,17.6,23.8,20.9c0.1,8.3-7.6,13.8-18.3,20.6c-7.8,4.9-15.2,9.5-15.2,17.4
	c0,6,2.5,14.3,14.3,19.5c9.1,4.1,23.2,6,43.1,6c19.9,0,34-2,43.1-6c11.8-5.2,14.3-13.5,14.3-19.5c0-7.9-7.4-12.5-15.2-17.4
	c-10.7-6.7-18.4-12.2-18.3-20.6C526.9,882.7,537,874.1,547.7,865.1z M534.3,919.3c2.7,1.7,6.7,4.2,8.1,5.6c-0.2,1.3-1.1,3-5.3,4.9
	c-7.1,3.1-19.5,4.7-37,4.7s-30-1.6-37-4.7c-4.1-1.8-5.1-3.6-5.3-4.9c1.4-1.4,5.4-3.9,8.1-5.6c10.9-6.8,27.4-17.2,25.1-36.5
	c-0.6-5.1-4.7-8.7-29-29.1C391.2,794,203.3,635.5,203.3,460.1c0-213.6,150.9-341.3,296.7-341.3s296.7,127.7,296.7,341.3
	c0,175.4-187.9,333.9-258.6,393.6c-24.3,20.5-28.4,24-29,29.1C506.8,902.1,523.3,912.4,534.3,919.3z"/>
</svg>
