<svg id="customLayer" class="characterRoot" viewbox="0 0 350.2 882.3">
    <circle id="customHead2" class="characterHead" cx="175.1" cy="175.1" r="175.1"/>
    <path id="customBODY2" d="M321.6,461.3c-1.4-54.2-58.4-69.4-70.8-69.4H99.4l0,0c-0.6,0-1.1,0-1.7,0c-12.4,0-69.4,15.3-70.8,69.4
            c-1.4,54.2,0,187.4,0,187.4H62c0,0,0-140.6,0-174c0-32.9,19.1-44,35.7-44c0.5,0,1.1,0,1.7-0.1v112.1h151.4v-112
            c16.6,0,35.7,11.1,35.7,44c0,33.4,0,174,0,174h35.1C321.6,648.7,323,515.4,321.6,461.3z"/>
    <path id="customLEGS2" d="M99.4,526.7v355.6h56.3c-0.1-0.5-0.1-1.1-0.1-1.6v-217c0-6.6,5.4-12,12-12h15c6.6,0,12,5.4,12,12v217
            c0,0.5-0.1,1.1-0.1,1.6h56.3V526.7H99.4z"/>
</svg>